<svg width="30" height="30" viewBox="0 0 30 30" fill="none" xmlns="http://www.w3.org/2000/svg">
<g clip-path="url(#clip0_0_43)">
<path fill-rule="evenodd" clip-rule="evenodd" d="M14.2831 8.4417C14.4961 8.44136 14.7338 8.4417 15.0008 8.4417C17.1368 8.4417 17.39 8.44936 18.2335 8.4877C19.0135 8.52336 19.4368 8.6537 19.7188 8.7632C20.0922 8.9082 20.3583 9.08154 20.6382 9.36154C20.9182 9.64154 21.0915 9.90821 21.2368 10.2815C21.3463 10.5632 21.4768 10.9866 21.5123 11.7666C21.5507 12.6099 21.559 12.8632 21.559 14.9983C21.559 17.1333 21.5507 17.3866 21.5123 18.23C21.4767 19.01 21.3463 19.4333 21.2368 19.715C21.0918 20.0883 20.9182 20.3542 20.6382 20.634C20.3582 20.914 20.0923 21.0873 19.7188 21.2323C19.4372 21.3423 19.0135 21.4723 18.2335 21.508C17.3901 21.5463 17.1368 21.5547 15.0008 21.5547C12.8646 21.5547 12.6114 21.5463 11.7681 21.508C10.9881 21.472 10.5647 21.3417 10.2826 21.2322C9.90923 21.0872 9.64256 20.9138 9.36256 20.6338C9.08256 20.3538 8.90922 20.0878 8.76389 19.7143C8.65438 19.4326 8.52388 19.0093 8.48838 18.2293C8.45005 17.386 8.44238 17.1326 8.44238 14.9963C8.44238 12.8599 8.45005 12.6079 8.48838 11.7646C8.52405 10.9846 8.65438 10.5612 8.76389 10.2792C8.90889 9.90588 9.08256 9.63921 9.36256 9.35921C9.64256 9.0792 9.90923 8.90587 10.2826 8.76053C10.5646 8.65053 10.9881 8.52053 11.7681 8.4847C12.5061 8.45136 12.7921 8.44136 14.2831 8.4397V8.4417ZM19.2712 9.76899C18.7411 9.76899 18.3111 10.1985 18.3111 10.7287C18.3111 11.2587 18.7411 11.6887 19.2712 11.6887C19.8012 11.6887 20.2312 11.2587 20.2312 10.7287C20.2312 10.1987 19.8012 9.76865 19.2712 9.76865V9.76899ZM15.0008 10.8917C12.732 10.8917 10.8924 12.7312 10.8924 15.0001C10.8924 17.269 12.732 19.1076 15.0008 19.1076C17.2697 19.1076 19.1085 17.269 19.1085 15.0001C19.1085 12.7312 17.2695 10.8917 15.0006 10.8917H15.0008Z" fill="white"/>
<path fill-rule="evenodd" clip-rule="evenodd" d="M15.0007 12.3334C16.4734 12.3334 17.6674 13.5272 17.6674 15.0001C17.6674 16.4728 16.4734 17.6668 15.0007 17.6668C13.5279 17.6668 12.334 16.4728 12.334 15.0001C12.334 13.5272 13.5279 12.3334 15.0007 12.3334Z" fill="white"/>
</g>
<defs>
<clipPath id="clip0_0_43">
<rect width="30" height="30" fill="white"/>
</clipPath>
</defs>
</svg>
