<svg width="14" height="15" viewBox="0 0 14 15" fill="none" xmlns="http://www.w3.org/2000/svg">
<g clip-path="url(#clip0_0_29)">
<path fill-rule="evenodd" clip-rule="evenodd" d="M11.0828 6.64887C8.8381 5.21314 5.13557 5.08113 2.99277 5.78158C2.6486 5.89406 2.28471 5.68485 2.18052 5.31426C2.07625 4.94339 2.27024 4.55175 2.61459 4.43908C5.07445 3.63493 9.16348 3.79023 11.7476 5.44233C12.0572 5.64025 12.1586 6.07076 11.9752 6.40356C11.7916 6.7369 11.3915 6.84679 11.0828 6.64887ZM11.0093 8.77536C10.8518 9.05057 10.5176 9.13691 10.2624 8.96791C8.39114 7.72904 5.53746 7.37009 3.32348 8.0939C3.03643 8.18731 2.73317 8.01303 2.64594 7.70432C2.55946 7.39516 2.72136 7.06917 3.00799 6.97513C5.53713 6.1485 8.68127 6.54883 10.8306 7.97148C11.0858 8.14074 11.1662 8.50077 11.0093 8.77536ZM10.1572 10.8176C10.032 11.0386 9.76487 11.1078 9.56039 10.9731C7.92516 9.89673 5.86693 9.65367 3.44299 10.25C3.20941 10.3076 2.97657 10.15 2.92336 9.89852C2.8698 9.64695 3.01566 9.39618 3.24974 9.33878C5.90236 8.68571 8.1777 8.96675 10.0132 10.1747C10.2178 10.3093 10.2823 10.5973 10.1572 10.8176ZM6.96358 0C3.11778 0 0 3.35784 0 7.49987C0 11.6423 3.11778 15 6.96358 15C10.8095 15 13.9272 11.6423 13.9272 7.49987C13.9272 3.35784 10.8095 0 6.96358 0Z" fill="white" fill-opacity="0.99"/>
</g>
<defs>
<clipPath id="clip0_0_29">
<rect width="13.9272" height="15" fill="white"/>
</clipPath>
</defs>
</svg>
