<svg width="25" height="27" viewBox="0 0 25 27" fill="none" xmlns="http://www.w3.org/2000/svg">
<path fill-rule="evenodd" clip-rule="evenodd" d="M12.04 10.9729L12.066 11.4401L11.6319 11.3829C10.0518 11.1636 8.67144 10.42 7.49941 9.17116L6.92642 8.55149L6.77883 9.00909C6.46628 10.0291 6.66596 11.1064 7.31709 11.8309C7.66436 12.2313 7.58623 12.2885 6.98719 12.0502C6.77883 11.9739 6.59651 11.9167 6.57915 11.9453C6.51837 12.0121 6.72674 12.8796 6.89169 13.2228C7.11741 13.6995 7.57755 14.1666 8.08108 14.4431L8.50649 14.6623L8.00295 14.6719C7.51677 14.6719 7.49941 14.6814 7.5515 14.8816C7.72513 15.5012 8.41099 16.159 9.17498 16.445L9.71325 16.6452L9.24444 16.9503C8.5499 17.3888 7.73382 17.6367 6.91773 17.6558C6.52706 17.6653 6.20583 17.7034 6.20583 17.732C6.20583 17.8274 7.265 18.3612 7.88141 18.571C9.73061 19.1906 11.9271 18.9237 13.5766 17.8655C14.7486 17.1124 15.9207 15.6156 16.4676 14.1666C16.7628 13.3944 17.058 11.9835 17.058 11.3066C17.058 10.8681 17.084 10.8109 17.5702 10.2865C17.8567 9.98148 18.1258 9.64782 18.1779 9.55249C18.2647 9.37135 18.2561 9.37135 17.8133 9.53342C17.0754 9.81942 16.9712 9.78128 17.3358 9.35229C17.6049 9.04722 17.9262 8.49429 17.9262 8.33223C17.9262 8.30363 17.7959 8.35129 17.6483 8.43709C17.4921 8.53243 17.1448 8.67543 16.8844 8.76122L16.4155 8.92329L15.9901 8.60869C15.7557 8.43709 15.4258 8.24643 15.2522 8.18923C14.8094 8.05576 14.1322 8.07483 13.7329 8.22736C12.6477 8.65636 11.9618 9.76222 12.04 10.9729Z" fill="white"/>
</svg>
